<svg width="241px" height="33px" viewBox="0 0 241 33" fill="none" xmlns="http://www.w3.org/2000/svg" transform="rotate(0) scale(1, 1)">
<g clip-path="url(#clip0_937_114982)">
<path d="M31.6855 10.4004C33.5955 10.4005 34.52 11.2167 35.2363 11.9814L35.2852 12.0352H35.7959V10.7178H39.0117V24.875C39.0117 27.5749 36.8135 29.7644 34.1025 29.7646H29.4189V26.6807H33.6738C34.8321 26.6806 35.7714 25.7444 35.7715 24.5908V22.041H35.2549L35.2041 22.1025C34.6455 22.7779 33.7602 23.5537 31.8564 23.5537C28.5725 23.5535 26.0002 20.6594 26 16.9648C26 13.2848 28.4975 10.4004 31.6855 10.4004ZM60 23.5156H56.7607V22.3203H56.2393L56.1885 22.3867C55.4585 23.3463 54.3345 23.8329 52.8457 23.833C49.5615 23.833 46.9883 20.939 46.9883 17.2441C46.9883 13.5632 49.4749 10.6797 52.6494 10.6797C54.1557 10.6797 55.3474 11.2094 56.1914 12.252L56.2422 12.3145H56.7607V5.55762H60V23.5156ZM17.7822 10.6475C21.4756 10.6475 24.0555 13.3459 24.0557 17.2109V17.9463H14.6973L14.6992 18.1162C14.7239 19.8346 15.9831 20.9892 17.8311 20.9893C19.1626 20.9893 20.2136 20.4394 20.7139 19.4814L23.585 20.1377C22.7605 22.4662 20.6804 23.8008 17.8799 23.8008C14.1031 23.8007 11.3623 21.0391 11.3623 17.2354C11.3624 13.4795 14.122 10.6475 17.7822 10.6475ZM6.69727 10.6787C8.03591 10.6787 9.05007 10.9164 10.4092 11.5527L9.36328 14.1445C8.47245 13.7522 7.82644 13.6064 7.00879 13.6064C4.95625 13.6064 3.33416 14.796 3.33398 17.2441C3.33398 19.6926 4.9106 20.8828 7.06152 20.8828C7.88619 20.8828 8.53671 20.6981 9.35547 20.2275L10.4609 22.5205C9.14428 23.3763 7.88393 23.7588 6.38477 23.7588C2.68508 23.7586 0 21.0403 0 17.2959C0.000159597 13.4613 2.81712 10.6787 6.69727 10.6787ZM44.8584 23.4131H41.6426V11.2295H44.8584V23.4131ZM53.5312 13.7354C51.645 13.7354 50.2764 15.2214 50.2764 17.2686C50.2764 19.3162 51.6558 20.8027 53.5557 20.8027C55.4105 20.8027 56.8096 19.2831 56.8096 17.2686C56.8095 15.1884 55.4612 13.7355 53.5312 13.7354ZM32.5674 13.4561C30.6819 13.4561 29.3135 14.932 29.3135 16.9648C29.3137 19.0267 30.682 20.5234 32.5674 20.5234C34.4224 20.5233 35.8211 18.9936 35.8213 16.9648C35.8213 14.9321 34.4527 13.4561 32.5674 13.4561ZM17.7822 13.2627C16.0177 13.2627 14.9086 14.5004 14.7256 15.7227L14.6963 15.915H20.8154L20.79 15.7256C20.6006 14.2988 19.3361 13.2627 17.7822 13.2627ZM43.3115 5.40039C44.3979 5.40039 45.2499 6.22642 45.25 7.28125C45.25 8.36756 44.4163 9.1875 43.3115 9.1875C42.1924 9.18732 41.3486 8.36745 41.3486 7.28125C41.3488 6.20875 42.1925 5.40057 43.3115 5.40039Z" fill="#ffffff"/>
<path d="M81.032 11.668C81.032 13.06 80.552 14.22 79.592 15.148C78.648 16.06 77.2 16.516 75.248 16.516H72.032V23.5H69.848V6.772H75.248C77.136 6.772 78.568 7.228 79.544 8.14C80.536 9.052 81.032 10.228 81.032 11.668ZM75.248 14.716C76.464 14.716 77.36 14.452 77.936 13.924C78.512 13.396 78.8 12.644 78.8 11.668C78.8 9.604 77.616 8.572 75.248 8.572H72.032V14.716H75.248ZM96.3844 6.772V23.5H94.2004V15.916H85.6804V23.5H83.4964V6.772H85.6804V14.116H94.2004V6.772H96.3844ZM99.0476 15.124C99.0476 13.492 99.4156 12.028 100.152 10.732C100.888 9.42 101.888 8.396 103.152 7.66C104.432 6.924 105.848 6.556 107.4 6.556C109.224 6.556 110.816 6.996 112.176 7.876C113.536 8.756 114.528 10.004 115.152 11.62H112.536C112.072 10.612 111.4 9.836 110.52 9.292C109.656 8.748 108.616 8.476 107.4 8.476C106.232 8.476 105.184 8.748 104.256 9.292C103.328 9.836 102.6 10.612 102.072 11.62C101.544 12.612 101.28 13.78 101.28 15.124C101.28 16.452 101.544 17.62 102.072 18.628C102.6 19.62 103.328 20.388 104.256 20.932C105.184 21.476 106.232 21.748 107.4 21.748C108.616 21.748 109.656 21.484 110.52 20.956C111.4 20.412 112.072 19.636 112.536 18.628H115.152C114.528 20.228 113.536 21.468 112.176 22.348C110.816 23.212 109.224 23.644 107.4 23.644C105.848 23.644 104.432 23.284 103.152 22.564C101.888 21.828 100.888 20.812 100.152 19.516C99.4156 18.22 99.0476 16.756 99.0476 15.124Z" fill="#ffffff" fill-opacity="0.64"/>
</g>
<mask id="path-3-inside-1_937_114982" fill="#ffffff">
<path d="M133 4.5H241V28.5H133V4.5Z"/>
</mask>
<path d="M133 28.5H134V4.5H133H132V28.5H133Z" fill="#ffffff" fill-opacity="0.2" mask="url(#path-3-inside-1_937_114982)"/>
<path d="M153.18 11.8V15.3H157.88V17.52H153.18V21.22H158.48V23.5H150.38V9.52H158.48V11.8H153.18ZM165.395 20.92L168.195 12.42H171.175L167.075 23.5H163.675L159.595 12.42H162.595L165.395 20.92ZM177.417 23.68C176.351 23.68 175.391 23.4467 174.537 22.98C173.684 22.5 173.011 21.8267 172.517 20.96C172.037 20.0933 171.797 19.0933 171.797 17.96C171.797 16.8267 172.044 15.8267 172.537 14.96C173.044 14.0933 173.731 13.4267 174.597 12.96C175.464 12.48 176.431 12.24 177.497 12.24C178.564 12.24 179.531 12.48 180.397 12.96C181.264 13.4267 181.944 14.0933 182.437 14.96C182.944 15.8267 183.197 16.8267 183.197 17.96C183.197 19.0933 182.937 20.0933 182.417 20.96C181.911 21.8267 181.217 22.5 180.337 22.98C179.471 23.4467 178.497 23.68 177.417 23.68ZM177.417 21.24C177.924 21.24 178.397 21.12 178.837 20.88C179.291 20.6267 179.651 20.2533 179.917 19.76C180.184 19.2667 180.317 18.6667 180.317 17.96C180.317 16.9067 180.037 16.1 179.477 15.54C178.931 14.9667 178.257 14.68 177.457 14.68C176.657 14.68 175.984 14.9667 175.437 15.54C174.904 16.1 174.637 16.9067 174.637 17.96C174.637 19.0133 174.897 19.8267 175.417 20.4C175.951 20.96 176.617 21.24 177.417 21.24ZM187.801 8.7V23.5H185.001V8.7H187.801ZM200.778 12.42V23.5H197.958V22.1C197.598 22.58 197.124 22.96 196.538 23.24C195.964 23.5067 195.338 23.64 194.658 23.64C193.791 23.64 193.024 23.46 192.358 23.1C191.691 22.7267 191.164 22.1867 190.778 21.48C190.404 20.76 190.218 19.9067 190.218 18.92V12.42H193.018V18.52C193.018 19.4 193.238 20.08 193.678 20.56C194.118 21.0267 194.718 21.26 195.478 21.26C196.251 21.26 196.858 21.0267 197.298 20.56C197.738 20.08 197.958 19.4 197.958 18.52V12.42H200.778ZM206.55 14.72V20.08C206.55 20.4533 206.637 20.7267 206.81 20.9C206.997 21.06 207.303 21.14 207.73 21.14H209.03V23.5H207.27C204.91 23.5 203.73 22.3533 203.73 20.06V14.72H202.41V12.42H203.73V9.68H206.55V12.42H209.03V14.72H206.55ZM212.214 11.1C211.721 11.1 211.307 10.9467 210.974 10.64C210.654 10.32 210.494 9.92667 210.494 9.46C210.494 8.99333 210.654 8.60667 210.974 8.3C211.307 7.98 211.721 7.82 212.214 7.82C212.707 7.82 213.114 7.98 213.434 8.3C213.767 8.60667 213.934 8.99333 213.934 9.46C213.934 9.92667 213.767 10.32 213.434 10.64C213.114 10.9467 212.707 11.1 212.214 11.1ZM213.594 12.42V23.5H210.794V12.42H213.594ZM221.03 23.68C219.964 23.68 219.004 23.4467 218.15 22.98C217.297 22.5 216.624 21.8267 216.13 20.96C215.65 20.0933 215.41 19.0933 215.41 17.96C215.41 16.8267 215.657 15.8267 216.15 14.96C216.657 14.0933 217.344 13.4267 218.21 12.96C219.077 12.48 220.044 12.24 221.11 12.24C222.177 12.24 223.144 12.48 224.01 12.96C224.877 13.4267 225.557 14.0933 226.05 14.96C226.557 15.8267 226.81 16.8267 226.81 17.96C226.81 19.0933 226.55 20.0933 226.03 20.96C225.524 21.8267 224.83 22.5 223.95 22.98C223.084 23.4467 222.11 23.68 221.03 23.68ZM221.03 21.24C221.537 21.24 222.01 21.12 222.45 20.88C222.904 20.6267 223.264 20.2533 223.53 19.76C223.797 19.2667 223.93 18.6667 223.93 17.96C223.93 16.9067 223.65 16.1 223.09 15.54C222.544 14.9667 221.87 14.68 221.07 14.68C220.27 14.68 219.597 14.9667 219.05 15.54C218.517 16.1 218.25 16.9067 218.25 17.96C218.25 19.0133 218.51 19.8267 219.03 20.4C219.564 20.96 220.23 21.24 221.03 21.24ZM234.754 12.26C236.074 12.26 237.141 12.68 237.954 13.52C238.768 14.3467 239.174 15.5067 239.174 17V23.5H236.374V17.38C236.374 16.5 236.154 15.8267 235.714 15.36C235.274 14.88 234.674 14.64 233.914 14.64C233.141 14.64 232.528 14.88 232.074 15.36C231.634 15.8267 231.414 16.5 231.414 17.38V23.5H228.614V12.42H231.414V13.8C231.788 13.32 232.261 12.9467 232.834 12.68C233.421 12.4 234.061 12.26 234.754 12.26Z" fill="#ffffff" fill-opacity="0.64"/>
<defs>
<clipPath id="clip0_937_114982">
<rect width="117" height="32" fill="#ffffff" transform="translate(0 0.5)"/>
</clipPath>
</defs>
</svg>